<svg xmlns="http://www.w3.org/2000/svg" viewBox="0 0 400 260" fill="none">
  <defs>
    <linearGradient id="body" x1="0" y1="0" x2="0" y2="1">
      <stop offset="0" stop-color="#4a97f2"/>
      <stop offset="1" stop-color="#0b52b8"/>
    </linearGradient>
    <linearGradient id="glass" x1="0" y1="0" x2="0" y2="1">
      <stop offset="0" stop-color="#dceafe"/>
      <stop offset="1" stop-color="#a9c8ef"/>
    </linearGradient>
    <radialGradient id="glow" cx="0.5" cy="0.5" r="0.5">
      <stop offset="0" stop-color="#0d63d6" stop-opacity="0.22"/>
      <stop offset="1" stop-color="#0d63d6" stop-opacity="0"/>
    </radialGradient>
  </defs>
  <ellipse cx="200" cy="210" rx="170" ry="18" fill="url(#glow)"/>
  <path d="M40 175 L65 120 Q80 100 110 96 L150 90 Q180 70 230 70 L270 90 Q300 96 320 118 L345 175 Z" fill="url(#body)" stroke="#0a3f8f" stroke-width="3"/>
  <path d="M118 96 L145 100 L160 130 L110 130 Z" fill="url(#glass)"/>
  <path d="M180 90 L235 90 L255 130 L165 130 L172 108 Z" fill="url(#glass)"/>
  <path d="M62 152 Q200 138 330 152" stroke="#ffffff" stroke-width="3" stroke-linecap="round" opacity="0.45"/>
  <rect x="40" y="170" width="305" height="18" rx="9" fill="#0a3f8f"/>
  <circle cx="110" cy="192" r="26" fill="#1b2533" stroke="#c8d5e6" stroke-width="4"/>
  <circle cx="110" cy="192" r="10" fill="#e8eef8"/>
  <circle cx="280" cy="192" r="26" fill="#1b2533" stroke="#c8d5e6" stroke-width="4"/>
  <circle cx="280" cy="192" r="10" fill="#e8eef8"/>
  <rect x="60" y="150" width="14" height="8" rx="2" fill="#ffd479"/>
  <rect x="326" y="150" width="14" height="8" rx="2" fill="#ff8b7d"/>
  <path d="M20 200 h50 M330 200 h50" stroke="#0d63d6" stroke-width="3" stroke-linecap="round" opacity="0.45"/>
</svg>
